<?xml version="1.0" encoding="UTF-8"?>
<svg xmlns="http://www.w3.org/2000/svg" xmlns:xlink="http://www.w3.org/1999/xlink" width="50px" height="50px" viewBox="0 0 50 50" version="1.1">
<g id="surface1">
<path style=" stroke:none;fill-rule:nonzero;fill:rgb(1.960784%,5.098039%,25.882353%);fill-opacity:1;" d="M 25 46.875 C 20.46875 46.875 17.1875 37.109375 17.1875 25 C 17.1875 12.890625 20.46875 3.125 25 3.125 C 29.53125 3.125 32.8125 12.890625 32.8125 25 C 32.8125 37.109375 29.53125 46.875 25 46.875 Z M 25 45.3125 C 28.203125 45.3125 31.25 36.25 31.25 25 C 31.25 13.75 28.203125 4.6875 25 4.6875 C 21.796875 4.6875 18.75 13.75 18.75 25 C 18.75 36.25 21.796875 45.3125 25 45.3125 Z M 25 45.3125 "/>
<path style=" stroke:none;fill-rule:nonzero;fill:rgb(1.960784%,5.098039%,25.882353%);fill-opacity:1;" d="M 6.09375 35.9375 C 3.75 32.03125 10.625 24.296875 21.09375 18.203125 C 31.5625 12.109375 41.640625 10.15625 43.90625 14.0625 C 46.171875 17.96875 39.375 25.703125 28.90625 31.796875 C 18.4375 37.890625 8.359375 39.84375 6.09375 35.9375 Z M 7.421875 35.15625 C 9.0625 37.96875 18.4375 36.015625 28.125 30.390625 C 37.8125 24.765625 44.21875 17.65625 42.578125 14.84375 C 40.9375 12.03125 31.5625 13.984375 21.875 19.609375 C 12.1875 25.234375 5.78125 32.34375 7.421875 35.15625 Z M 7.421875 35.15625 "/>
<path style=" stroke:none;fill-rule:nonzero;fill:rgb(1.960784%,5.098039%,25.882353%);fill-opacity:1;" d="M 43.90625 35.9375 C 41.640625 39.84375 31.484375 37.8125 21.09375 31.796875 C 10.703125 25.78125 3.75 17.96875 6.09375 14.0625 C 8.4375 10.15625 18.515625 12.1875 28.90625 18.203125 C 39.296875 24.21875 46.25 32.03125 43.90625 35.9375 Z M 42.578125 35.15625 C 44.21875 32.34375 37.8125 25.234375 28.125 19.609375 C 18.4375 13.984375 8.984375 12.03125 7.421875 14.84375 C 5.859375 17.65625 12.1875 24.765625 21.875 30.390625 C 31.5625 36.015625 41.015625 37.96875 42.578125 35.15625 Z M 42.578125 35.15625 "/>
<path style=" stroke:none;fill-rule:nonzero;fill:rgb(18.431373%,29.411765%,100%);fill-opacity:1;" d="M 25 28.90625 C 22.8125 28.90625 21.09375 27.1875 21.09375 25 C 21.09375 22.8125 22.8125 21.09375 25 21.09375 C 27.1875 21.09375 28.90625 22.8125 28.90625 25 C 28.90625 27.1875 27.1875 28.90625 25 28.90625 Z M 13.28125 15.234375 C 11.953125 15.234375 10.9375 14.21875 10.9375 12.890625 C 10.9375 11.5625 11.953125 10.546875 13.28125 10.546875 C 14.609375 10.546875 15.625 11.5625 15.625 12.890625 C 15.625 14.21875 14.609375 15.234375 13.28125 15.234375 Z M 20.3125 42.96875 C 18.984375 42.96875 17.96875 41.953125 17.96875 40.625 C 17.96875 39.296875 18.984375 38.28125 20.3125 38.28125 C 21.640625 38.28125 22.65625 39.296875 22.65625 40.625 C 22.65625 41.953125 21.640625 42.96875 20.3125 42.96875 Z M 42.1875 21.875 C 40.859375 21.875 39.84375 20.859375 39.84375 19.53125 C 39.84375 18.203125 40.859375 17.1875 42.1875 17.1875 C 43.515625 17.1875 44.53125 18.203125 44.53125 19.53125 C 44.53125 20.859375 43.515625 21.875 42.1875 21.875 Z M 42.1875 21.875 "/>
</g>
</svg>
